<?xml version="1.0" encoding="UTF-8"?>
<svg id="Layer_1" data-name="Layer 1" xmlns="http://www.w3.org/2000/svg" viewBox="0 0 226.59 92.63">
  <defs>
    <style>
      .cls-1 {
        fill: none;
        stroke: #000;
        stroke-miterlimit: 10;
      }
    </style>
  </defs>
  <rect class="cls-1" x=".5" y=".5" width="78.16" height="91.63"/>
  <polygon class="cls-1" points="48.47 22.6 48.47 27.45 51.84 27.45 51.84 54.54 44.7 54.54 44.7 18.83 48.47 18.83 48.47 13.98 30.69 13.98 30.69 18.83 34.46 18.83 34.46 54.54 27.32 54.54 27.32 27.45 30.69 27.45 30.69 22.6 13.98 22.6 13.98 27.45 17.75 27.45 17.75 58.85 23.95 65.05 34.46 65.05 34.46 72.32 30.69 72.32 30.69 78.66 48.47 78.66 48.47 72.32 44.7 72.32 44.7 65.05 55.21 65.05 61.41 58.85 61.41 27.45 65.18 27.45 65.18 22.6 48.47 22.6"/>
  <path class="cls-1" d="M98.87,27.54h6.68v27.06h12.24v5.5h-18.92V27.54Z"/>
  <path class="cls-1" d="M132.23,60.63c-1.98,0-3.67-.28-5.09-.79s-2.58-1.29-3.48-2.3c-.92-.99-1.59-2.23-2.02-3.69s-.64-3.11-.64-5v-21.3h6.7v20.9c0,1.14.06,2.13.24,2.94s.43,1.5.82,2.04c.37.54.84.92,1.42,1.18s1.29.39,2.15.39c1.65,0,2.83-.52,3.54-1.59.71-1.05,1.07-2.68,1.07-4.92v-20.94h6.38v21.26c0,1.89-.21,3.57-.62,5.03-.43,1.46-1.07,2.71-1.98,3.72-.9,1.01-2.04,1.78-3.44,2.3-1.42.52-3.09.79-5.05.79v-.02Z"/>
  <path class="cls-1" d="M148.27,27.54h8.53c2.19,0,4.19.26,6.01.77s3.39,1.37,4.72,2.62,2.36,2.9,3.09,4.96c.73,2.08,1.1,4.7,1.1,7.84,0,2.1-.17,3.97-.52,5.61s-.82,3.07-1.44,4.27c-.64,1.2-1.4,2.23-2.28,3.05-.9.84-1.89,1.5-2.99,2.02-1.12.52-2.32.88-3.61,1.1-1.31.21-2.68.32-4.1.32h-8.53V27.54h.02ZM157.42,54.51c1.4,0,2.58-.19,3.54-.58s1.76-.99,2.36-1.85,1.03-1.95,1.29-3.33c.26-1.37.41-3.05.41-5.03s-.15-3.52-.41-4.85c-.26-1.33-.69-2.41-1.29-3.26-.6-.84-1.4-1.46-2.36-1.85-.99-.39-2.17-.58-3.59-.58h-2.43v21.33h2.48Z"/>
  <path class="cls-1" d="M175.8,27.54h8.53c2.19,0,4.19.26,6.01.77s3.39,1.37,4.72,2.62,2.36,2.9,3.09,4.96c.73,2.08,1.1,4.7,1.1,7.84,0,2.1-.17,3.97-.52,5.61s-.82,3.07-1.44,4.27c-.64,1.2-1.4,2.23-2.28,3.05-.9.84-1.89,1.5-2.99,2.02-1.12.52-2.32.88-3.61,1.1-1.31.21-2.68.32-4.1.32h-8.53V27.54h.02ZM184.95,54.51c1.4,0,2.58-.19,3.54-.58s1.76-.99,2.36-1.85,1.03-1.95,1.29-3.33.41-3.05.41-5.03-.15-3.52-.41-4.85-.69-2.41-1.29-3.26c-.6-.84-1.4-1.46-2.36-1.85-.99-.39-2.17-.58-3.59-.58h-2.43v21.33h2.48Z"/>
  <path class="cls-1" d="M209.93,47.34l-9.15-19.8h6.83l5.8,13.72h.09l5.8-13.72h6.51l-9.19,19.76v12.8h-6.68v-12.76h-.01Z"/>
</svg>